<?xml version="1.0" standalone="no"?>
<!DOCTYPE svg PUBLIC "-//W3C//DTD SVG 20010904//EN"
 "http://www.w3.org/TR/2001/REC-SVG-20010904/DTD/svg10.dtd">
<svg version="1.0" xmlns="http://www.w3.org/2000/svg"
 width="700.000000pt" height="700.000000pt" viewBox="0 0 700.000000 700.000000"
 preserveAspectRatio="xMidYMid meet">
<metadata>
Created by potrace 1.11, written by Peter Selinger 2001-2013
</metadata>
<g transform="translate(0.000000,700.000000) scale(0.100000,-0.100000)"
fill="#000000" stroke="none">
<path d="M3397 6124 c-1 -1 -45 -5 -97 -8 -53 -4 -105 -8 -115 -10 -11 -2 -45
-7 -75 -11 -170 -21 -303 -48 -434 -87 -472 -140 -823 -396 -1034 -753 -76
-129 -151 -330 -167 -448 -3 -23 -8 -51 -10 -62 -2 -11 -4 -33 -6 -50 -5 -63
-15 61 -17 220 -2 88 -5 161 -7 163 -5 5 -113 -127 -150 -183 -95 -147 -167
-339 -190 -505 -3 -25 -9 -58 -11 -75 -3 -16 -6 -85 -6 -153 0 -140 8 -132
-95 -86 -29 13 -53 22 -54 21 -8 -21 -11 -77 -14 -252 -4 -260 11 -377 77
-590 38 -120 100 -231 280 -500 226 -338 340 -538 417 -730 164 -410 391 -746
728 -1080 107 -106 233 -218 322 -285 18 -14 45 -34 59 -46 121 -95 224 -150
318 -168 11 -2 30 -7 44 -11 21 -5 29 -1 40 19 7 14 11 28 9 29 -2 2 -46 27
-97 56 -601 335 -1037 838 -1330 1531 -67 159 -113 315 -167 560 -58 269 -78
732 -40 940 2 14 7 45 10 70 33 241 124 505 250 725 18 33 43 76 53 95 35 61
149 207 219 278 281 285 577 425 1010 478 68 8 272 8 343 0 97 -11 199 -25
225 -30 336 -69 562 -163 790 -329 78 -57 201 -171 218 -202 5 -11 -19 8 -54
43 -185 183 -507 338 -845 407 -95 20 -267 35 -431 39 -323 7 -664 -86 -903
-247 -156 -106 -318 -269 -423 -427 -20 -30 -41 -60 -45 -65 -16 -20 -132
-261 -156 -325 -23 -60 -82 -259 -90 -305 -23 -121 -29 -154 -31 -175 -2 -14
-7 -56 -12 -95 -15 -131 -8 -567 11 -671 2 -10 7 -44 11 -74 10 -73 13 -92 19
-98 9 -8 159 151 198 209 69 104 167 327 153 349 -3 5 -27 12 -53 16 -26 3
-51 9 -55 11 -4 3 14 21 40 41 123 94 296 268 454 457 62 76 142 170 176 209
l62 70 -42 19 c-57 26 -96 42 -134 57 -18 7 -33 15 -33 19 0 3 53 7 118 7 115
0 313 11 362 18 31 6 96 13 175 22 33 3 62 7 65 9 3 2 32 6 65 10 33 3 69 8
80 10 11 2 28 4 37 4 15 1 13 11 -16 81 -19 44 -32 80 -30 80 10 0 207 -108
307 -167 l108 -65 54 20 c32 13 55 17 55 11 0 -19 133 -282 176 -347 l41 -63
11 38 c53 194 80 316 103 468 7 44 16 84 20 89 5 5 7 -2 4 -15 -11 -71 -35
-240 -39 -279 -3 -25 -7 -61 -10 -80 -3 -19 -7 -56 -11 -81 -3 -25 -8 -59 -11
-75 -9 -52 -55 -227 -65 -245 -7 -15 1 -13 44 9 98 50 245 100 286 97 24 -2
68 -58 75 -99 6 -34 52 -93 100 -128 29 -21 34 -28 20 -28 -11 0 -30 7 -42 16
-32 22 -27 5 16 -62 65 -100 136 -146 226 -145 124 0 247 157 255 324 1 10 9
17 22 17 20 0 21 -4 16 -52 -7 -71 -49 -191 -92 -267 l-35 -62 53 2 c175 9
428 129 550 263 108 118 185 301 216 511 22 144 5 384 -39 554 -70 273 -163
452 -319 610 -161 164 -346 265 -564 307 -10 2 -73 17 -140 34 -137 36 -137
36 -227 55 -54 11 -59 13 -30 15 197 11 445 -11 613 -55 83 -22 157 -42 195
-54 35 -10 40 -6 46 35 3 21 -47 62 -204 170 -319 218 -634 354 -992 429 -133
27 -310 28 -419 2 -145 -35 -298 -107 -454 -213 -55 -37 -136 -90 -180 -116
-78 -47 -79 -48 -40 -12 39 35 176 160 245 223 19 18 74 64 123 103 48 39 87
72 87 74 0 3 -119 1 -123 -2z"/>
</g>
</svg>
