<?xml version="1.0" encoding="utf-8"?>
<!-- Generator: Adobe Illustrator 23.0.2, SVG Export Plug-In . SVG Version: 6.00 Build 0)  -->
<svg version="1.1" id="Layer_1" xmlns="http://www.w3.org/2000/svg" xmlns:xlink="http://www.w3.org/1999/xlink" x="0px" y="0px"
	 viewBox="0 0 353.5 84.2" style="enable-background:new 0 0 353.5 84.2;" xml:space="preserve">
<style type="text/css">
	.st0{fill:#008080;}
</style>
<g>
	<g>
		<g>
			<path class="st0" d="M3.2,28.2c0.9,0.4,1.3,0.6,2,0.8c-0.1-1-0.1-2.1,0-3.2c0.1-1.1,0.3-2.4,0.7-3.6c0.7-2.4,2-4.7,3.9-6.6
				c-0.1,2-0.1,3.8,0.2,5.6c0.1-3.1,1.2-6.2,3.1-8.9c1.9-2.7,4.5-4.9,7.6-6.5c2.6-1.3,5.4-2.2,8.4-2.7c0.7-0.1,1.5-0.2,2.2-0.3
				c0.6-0.1,1.1-0.1,1.7-0.2c1.1-0.1,2.2-0.1,3.4-0.2c-2.6,1.9-4.1,3.6-6.6,5.7c2.6-1.4,4-2.8,6.2-3.8c2.1-1,4.6-1.7,7.6-1.2
				c4.5,0.8,9,2.6,13.2,5.5c1,0.7,1.9,1.3,2.8,2.1l-0.2,0.8c-1.2-0.4-2.3-0.7-3.5-1c-2.8-0.6-5.4-0.7-7.9-0.5
				c2.4,0.3,4.4,1.1,6.2,1.4c0.4,0.1,0.7,0.2,1.1,0.3c4.3,1.3,7.5,4.8,8.9,8.7c1.2,3.4,1.8,7.1,1.1,10.5c-0.3,1.6-0.9,3.3-1.8,4.6
				c-0.9,1.3-2,2.2-3.2,2.9C58.7,39.2,57,39.9,55,40c1.1-1.7,1.6-3.3,1.7-4.8L56.2,35c0,1.7-0.9,3.6-2.3,4.2
				c-0.7,0.3-1.5,0.3-2.3-0.1c-0.8-0.4-1.5-1.3-2.1-2.6c0.3,0.3,0.8,0.5,1.2,0.5l-0.1-0.1c-0.8-0.4-1.4-1.2-1.7-1.7l-0.1-0.2l0-0.1
				l0-0.1l0,0l0,0.1l0,0.1c0,0,0,0,0,0l0,0c0,0,0-0.1,0-0.1c0-0.1-0.1-0.3-0.3-0.6c-0.2-0.4-0.7-0.9-0.9-1c-0.2-0.2-0.1-0.1,0.3,0.1
				c0.2,0.1,0.5,0.1,0.8,0.2c0.1,0,0.3,0,0.4,0c0.1,0,0.1,0,0.2,0l0.1,0l0,0l-1.6,0.1l0,0l-0.1,0c-0.1,0-0.1,0-0.2,0l-0.1,0
				c0,0-0.1,0,0.1,0c0.2,0,0.4-0.1,0.7-0.1l-0.2,0l-0.7,0.2l-0.1,0l0,0l0,0l0,0c0.1,0,0.1,0,0.2,0l0.2,0c0.5,0,1.1,0,1.7-0.1
				l-1.6,0.1l-0.1,0l-0.3,0l-0.3,0.1c-0.1,0-0.2,0.1-0.4,0.1c-0.1,0-0.3,0.1-0.4,0.1C46.1,34,46,34,45.8,34.1
				c-0.1,0.1-0.3,0.1-0.5,0.2l-0.2,0.1c0,0-0.1,0.1-0.1,0l0.1-0.1c-0.3,0.2-0.2,0.1-0.1,0.1c0,0,0.1,0,0.1-0.1
				c-0.3,0.2-0.6,0.4-0.9,0.5l-0.4,0.3c-0.1,0.1,0,0,0,0c0,0,0,0,0,0c0.1-0.1,0.1-0.2,0.2-0.5c0.2-0.5,0.4-1.4,0.7-2.6
				c0.3-1.7,0.5-4.2,1-7.3l-0.4,0.3c-0.3,2.5-0.8,4.9-1.6,7.5c-0.8-1.1-1.9-3.1-2.8-5.3c-0.7,0.2-1.2,0.6-1.5,0.4
				c-0.8-0.5-1.6-1-2.5-1.5c-0.9-0.5-1.9-1-2.7-1.4c0.3,0.7,0.7,1.4,0.9,2.1c-0.9,0.1-1.9,0.2-3.1,0.4c-1.1,0.1-2.3,0.3-3.8,0.4
				c-1.4,0.1-3.2,0.2-5.2,0.1c1,0.4,2,0.8,3.1,1.3c-0.6,0.7-1.3,1.4-1.9,2.2c-0.6,0.7-1.3,1.5-2.1,2.5c-1.5,1.7-3.2,3.5-5.5,5.2
				c0.7,0.1,1.1,0.2,1.6,0.3c-0.8,2.6-1.9,5-4.6,7.2c-0.5-2.7-0.7-5.4-0.7-8.2c0.1-2.8,0.5-5.7,1.4-8.5c0.4-1.4,1-2.9,1.8-4.3
				c0.7-1.4,1.6-2.7,2.6-3.9c2-2.4,4.6-4.3,7.4-5.4c2.3-0.9,4.8-1.3,7.2-1.4c2.2,0,4.3,0.1,6.4,0.5c4.1,0.8,8.2,2.6,11,5.4
				c0.5,0.5,0.9,0.9,1.3,1.4c-0.4-0.5-0.8-1-1.2-1.5c-2.8-3-6.9-5.1-11.1-6c-2.1-0.5-4.3-0.8-6.5-0.8c-2.5,0-5.1,0.4-7.6,1.3
				c-3.2,1.2-6.1,3.3-8.4,6c-1.1,1.3-2.1,2.9-2.9,4.5c-0.4,0.8-0.8,1.6-1.1,2.4c-0.3,0.8-0.6,1.5-0.8,2.3c-0.9,3.1-1.2,6.2-1.2,9.2
				c0,2.9,0.4,5.8,1.1,8.7c0.6,2.8,1.6,5.6,2.9,8.2c1.2,2.6,2.7,5,4.5,7.3c3.4,4.5,7.9,8.1,12.7,10.5l-0.4,0.7c-1-0.3-2.1-0.4-3-1
				c-3.3-2.2-6.4-4.9-9.2-8.1C16.9,62.6,14.6,59,13,55c-1.9-4.7-4.4-8.1-7.1-12.1C3.5,39.4,2.5,34.2,3.2,28.2z"/>
		</g>
	</g>
</g>
<g>
	<path class="st0" d="M100.7,53.6c0,5.1-1,9-2.9,11.8c-1.9,2.7-4.6,4.1-8,4.1h-5.1c-4.2,0-7.2-1.1-9-3.2c-1.8-2.1-2.7-5.8-2.7-11
		V14.4h16.1c3.6,0,6.4,1.3,8.2,3.9c1.8,2.6,2.8,6.3,2.8,11.1c0,2.8-0.5,5.2-1.5,7.1c-1,2-2.1,3.4-3.2,4.2
		C98.9,43.1,100.7,47.4,100.7,53.6z M88.5,35.9c2.8,0,4.1-2,4.1-6c0-4-1.4-6-4.1-6h-8.1v11.9H88.5z M93.2,53.1
		c0-2.5-0.3-4.3-0.9-5.6c-0.6-1.3-1.7-1.9-3.3-1.9h-8.6v8.7c0,2.1,0.4,3.6,1.1,4.4c0.7,0.8,1.9,1.2,3.6,1.2H89
		C91.8,59.9,93.2,57.6,93.2,53.1z"/>
	<path class="st0" d="M130.7,49.7h-17.9c0,4,0.4,7,1.3,8.8c0.9,1.9,2.6,2.8,5.3,2.8c1.7,0,3-0.8,3.8-2.4c0.8-1.6,1.2-3.1,1.2-4.5
		h6.3c0,5.5-1,9.6-3.1,12.2c-2.1,2.6-4.8,3.9-8.2,3.9c-3.4,0-6-0.7-7.9-2.1c-3.8-2.8-5.7-10.4-5.7-22.6c0-7.3,1.1-12.6,3.3-16
		c2.2-3.4,5.5-5.1,10-5.1c7.8,0,11.6,6.2,11.6,18.7C130.8,44.7,130.8,46.9,130.7,49.7z M113,42.9h11.5c0-3.4-0.4-5.9-1.3-7.4
		c-0.9-1.5-2.3-2.3-4.1-2.3c-1.8,0-3.3,0.8-4.4,2.4C113.5,37,113,39.5,113,42.9z"/>
	<path class="st0" d="M153.4,25.4l-1.9,9.9c-0.5-0.3-1.1-0.5-1.8-0.5c-1.8,0-4,1.1-6.6,3.3v31.3h-7V25.3h5.2l1.6,3.9l7.4-4.4
		c0.4-0.1,0.8-0.1,1.4-0.1C152.3,24.7,152.9,24.9,153.4,25.4z"/>
	<path class="st0" d="M179.1,69.5h-4.7l-2.1-5.3l-7.5,5.8c-4.1,0-6.9-2.2-8.4-6.5c-0.7-2.1-1.2-4.4-1.5-6.9c-0.3-2.5-0.4-5-0.4-7.7
		c0-2.7,0-4.6,0.1-5.9c0-1.3,0.1-2.7,0.3-4.4c0.1-1.7,0.3-3.1,0.6-4.2c0.3-1.1,0.7-2.3,1.2-3.5c0.5-1.2,1.1-2.2,1.8-2.9
		c1.6-1.6,3.7-2.4,6.3-2.4h7.3l7-0.6V69.5z M172.2,55.4V34.6h-5.3c-2,0-3.3,1.1-4.1,3.3c-0.8,2.2-1.2,5.4-1.2,9.7
		c0,4.3,0.4,7.3,1.1,9.1c0.7,1.8,2.1,2.6,4.2,2.6L172.2,55.4z"/>
	<path class="st0" d="M210.5,69.5h-7V41.2c0-2.5-0.4-4.3-1.1-5.2c-0.7-0.9-1.7-1.4-3-1.4l-6.3,3.8v31h-7V25.3h5.2l1.6,5.3l8.6-5.7
		c2.4,0,4.5,1.3,6.2,3.8s2.7,6.3,2.7,11.2V69.5z"/>
	<path class="st0" d="M238.5,69.5h-4.7l-2.1-5.3l-7.5,5.8c-4.1,0-6.9-2.2-8.4-6.5c-0.7-2.1-1.2-4.4-1.5-6.9c-0.3-2.5-0.4-5-0.4-7.7
		c0-2.7,0-4.6,0.1-5.9c0-1.3,0.1-2.7,0.3-4.4c0.1-1.7,0.3-3.1,0.6-4.2c0.3-1.1,0.7-2.3,1.2-3.5c0.5-1.2,1.1-2.2,1.8-2.9
		c1.6-1.6,3.7-2.4,6.3-2.4h7.3l7-0.6V69.5z M231.5,55.4V34.6h-5.3c-2,0-3.3,1.1-4.1,3.3c-0.8,2.2-1.2,5.4-1.2,9.7
		c0,4.3,0.4,7.3,1.1,9.1c0.7,1.8,2.1,2.6,4.2,2.6L231.5,55.4z"/>
	<path class="st0" d="M274.3,53.6c0,5.1-1,9-2.9,11.8c-1.9,2.7-4.6,4.1-8,4.1h-5.1c-4.2,0-7.2-1.1-9-3.2c-1.8-2.1-2.7-5.8-2.7-11
		V14.4h16.1c3.6,0,6.4,1.3,8.2,3.9c1.8,2.6,2.8,6.3,2.8,11.1c0,2.8-0.5,5.2-1.5,7.1c-1,2-2.1,3.4-3.2,4.2
		C272.5,43.1,274.3,47.4,274.3,53.6z M262.2,35.9c2.8,0,4.1-2,4.1-6c0-4-1.4-6-4.1-6h-8.1v11.9H262.2z M266.8,53.1
		c0-2.5-0.3-4.3-0.9-5.6c-0.6-1.3-1.7-1.9-3.3-1.9h-8.6v8.7c0,2.1,0.4,3.6,1.1,4.4c0.7,0.8,1.9,1.2,3.6,1.2h3.9
		C265.4,59.9,266.8,57.6,266.8,53.1z"/>
	<path class="st0" d="M303.7,25.3l-11.6,49.2c-0.5,2.2-1.2,3.9-2.1,5.2c-1.4,2.1-3.4,3.1-6,3.1h-3.3v-9.1h2.1c1,0,1.7-0.2,2.2-0.7
		c0.5-0.5,0.9-1.5,1.3-2.9l0.5-2.2l-9.2-42.6h7.3l5.5,30.7l5.9-30.7H303.7z"/>
	<path class="st0" d="M321,69.5h-4.3c-2.6,0-4.7-1.1-6-3.4c-1.4-2.3-2.1-5-2.1-8.1V34.7h-3v-7.7h3v-8.7h7v8.7h4.9v7.7h-4.9v22.6
		c0,2.4,0.8,3.6,2.4,3.6h3.1V69.5z"/>
	<path class="st0" d="M349.7,49.7h-17.9c0,4,0.4,7,1.3,8.8c0.9,1.9,2.6,2.8,5.3,2.8c1.7,0,3-0.8,3.8-2.4c0.8-1.6,1.2-3.1,1.2-4.5
		h6.3c0,5.5-1,9.6-3.1,12.2c-2.1,2.6-4.8,3.9-8.2,3.9s-6-0.7-7.9-2.1c-3.8-2.8-5.7-10.4-5.7-22.6c0-7.3,1.1-12.6,3.3-16
		c2.2-3.4,5.5-5.1,10-5.1c7.8,0,11.6,6.2,11.6,18.7C349.8,44.7,349.8,46.9,349.7,49.7z M332,42.9h11.5c0-3.4-0.4-5.9-1.3-7.4
		c-0.9-1.5-2.3-2.3-4.1-2.3c-1.8,0-3.3,0.8-4.4,2.4C332.5,37,332,39.5,332,42.9z"/>
</g>
</svg>
