<?xml version="1.0" encoding="utf-8"?>
<!-- Generator: Adobe Illustrator 23.0.2, SVG Export Plug-In . SVG Version: 6.00 Build 0)  -->
<svg version="1.1" id="Layer_1" xmlns="http://www.w3.org/2000/svg" xmlns:xlink="http://www.w3.org/1999/xlink" x="0px" y="0px"
	 viewBox="0 0 418.7 85.3" style="enable-background:new 0 0 418.7 85.3;" xml:space="preserve">
<style type="text/css">
	.st0{fill:#008080;}
</style>
<g>
	<g>
		<g>
			<path class="st0" d="M2.3,27.9c0.9,0.4,1.3,0.6,2,0.8c-0.1-1-0.1-2.1,0-3.2s0.3-2.4,0.7-3.6c0.7-2.4,2-4.7,3.9-6.6
				c-0.1,2-0.1,3.8,0.2,5.6c0.1-3.1,1.2-6.2,3.1-8.9s4.5-4.9,7.6-6.5c2.6-1.3,5.4-2.2,8.4-2.7c0.7-0.1,1.5-0.2,2.2-0.3
				c0.6-0.1,1.1-0.1,1.7-0.2c1.1-0.1,2.2-0.1,3.4-0.2c-2.6,1.9-4.1,3.6-6.6,5.7c2.6-1.4,4-2.8,6.2-3.8c2.1-1,4.6-1.7,7.6-1.2
				c4.5,0.8,9,2.6,13.2,5.5c1,0.7,1.9,1.3,2.8,2.1l-0.2,0.8c-1.2-0.4-2.3-0.7-3.5-1c-2.8-0.6-5.4-0.7-7.9-0.5
				c2.4,0.3,4.4,1.1,6.2,1.4c0.4,0.1,0.7,0.2,1.1,0.3c4.3,1.3,7.5,4.8,8.9,8.7c1.2,3.4,1.8,7.1,1.1,10.5c-0.3,1.6-0.9,3.3-1.8,4.6
				c-0.9,1.3-2,2.2-3.2,2.9c-1.6,0.8-3.2,1.5-5.3,1.5c1.1-1.7,1.6-3.3,1.7-4.8l-0.5-0.1c0,1.7-0.9,3.6-2.3,4.2
				c-0.7,0.3-1.5,0.3-2.3-0.1c-0.8-0.4-1.5-1.3-2.1-2.6c0.3,0.3,0.8,0.5,1.2,0.5l-0.1-0.1c-0.8-0.4-1.4-1.2-1.7-1.7v-0.3v-0.1v-0.1
				l0,0v0.1v0.1l0,0l0,0v-0.1c0-0.1-0.1-0.3-0.3-0.6c-0.2-0.4-0.7-0.9-0.9-1c-0.2-0.2-0.1-0.1,0.3,0.1c0.2,0.1,0.5,0.1,0.8,0.2
				c0.1,0,0.3,0,0.4,0c0.1,0,0.1,0,0.2,0h0.1l0,0H47l0,0h-0.1c-0.1,0-0.1,0-0.2,0h-0.1c0,0-0.1,0,0.1,0c0.2,0,0.4-0.1,0.7-0.1h-0.2
				l-0.7,0.2h-0.1l0,0l0,0l0,0c0.1,0,0.1,0,0.2,0h0.2c0.5,0,1.1,0,1.7-0.1l-1.6,0.1h-0.1h-0.3l-0.3,0.1c-0.1,0-0.2,0.1-0.4,0.1
				c-0.1,0-0.3,0.1-0.4,0.1c-0.2,0.1-0.3,0.1-0.5,0.2c-0.1,0.1-0.3,0.1-0.5,0.2l-0.2,0.1c0,0-0.1,0.1-0.1,0l0.1-0.1
				c-0.3,0.2-0.2,0.1-0.1,0.1c0,0,0.1,0,0.1-0.1c-0.3,0.2-0.6,0.4-0.9,0.5l-0.4,0.3c-0.1,0.1,0,0,0,0l0,0c0.1-0.1,0.1-0.2,0.2-0.5
				c0.2-0.5,0.4-1.4,0.7-2.6c0.3-1.7,0.5-4.2,1-7.3l-0.4,0.3c-0.3,2.5-0.8,4.9-1.6,7.5c-0.8-1.1-1.9-3.1-2.8-5.3
				c-0.7,0.2-1.2,0.6-1.5,0.4c-0.8-0.5-1.6-1-2.5-1.5s-1.9-1-2.7-1.4c0.3,0.7,0.7,1.4,0.9,2.1c-0.9,0.1-1.9,0.2-3.1,0.4
				c-1.1,0.1-2.3,0.3-3.8,0.4c-1.4,0.1-3.2,0.2-5.2,0.1c1,0.4,2,0.8,3.1,1.3c-0.6,0.7-1.3,1.4-1.9,2.2c-0.6,0.7-1.3,1.5-2.1,2.5
				c-1.5,1.7-3.2,3.5-5.5,5.2c0.7,0.1,1.1,0.2,1.6,0.3c-0.8,2.6-1.9,5-4.6,7.2c-0.5-2.7-0.7-5.4-0.7-8.2c0.1-2.8,0.5-5.7,1.4-8.5
				c0.4-1.4,1-2.9,1.8-4.3c0.7-1.4,1.6-2.7,2.6-3.9c2-2.4,4.6-4.3,7.4-5.4c2.3-0.9,4.8-1.3,7.2-1.4c2.2,0,4.3,0.1,6.4,0.5
				c4.1,0.8,8.2,2.6,11,5.4c0.5,0.5,0.9,0.9,1.3,1.4c-0.4-0.5-0.8-1-1.2-1.5c-2.8-3-6.9-5.1-11.1-6c-2.1-0.5-4.3-0.8-6.5-0.8
				c-2.5,0-5.1,0.4-7.6,1.3c-3.2,1.2-6.1,3.3-8.4,6c-1.1,1.3-2.1,2.9-2.9,4.5c-0.4,0.8-0.8,1.6-1.1,2.4s-0.6,1.5-0.8,2.3
				c-0.9,3.1-1.2,6.2-1.2,9.2c0,2.9,0.4,5.8,1.1,8.7c0.6,2.8,1.6,5.6,2.9,8.2c1.2,2.6,2.7,5,4.5,7.3c3.4,4.5,7.9,8.1,12.7,10.5
				L31,74.5c-1-0.3-2.1-0.4-3-1c-3.3-2.2-6.4-4.9-9.2-8.1c-2.7-3.1-5.1-6.8-6.7-10.8c-1.9-4.7-4.4-8.1-7.1-12.1
				C2.6,39.1,1.7,33.9,2.3,27.9z"/>
		</g>
	</g>
</g>
<g>
	<g>
		<path class="st0" d="M77.6,64.7c-0.8,0-1.4-0.2-1.9-0.6c-0.5-0.5-0.8-0.9-0.8-1.7V21.9c0-0.6,0.2-1.2,0.6-1.6
			c0.5-0.5,0.9-0.6,1.6-0.6h14c2.3,0,4.4,0.5,6.2,1.4c1.9,0.9,3.3,2.3,4.4,4s1.7,3.6,1.7,5.9c0,2-0.6,3.9-1.7,5.6
			c-1.1,1.6-2.6,2.8-4.4,3.7c2.6,0.6,4.7,2,6.2,3.9c1.6,1.9,2.3,4.4,2.3,7.2c0,2.6-0.6,5-1.7,6.8c-1.2,2-2.8,3.6-5,4.7
			C97,64,94.7,64.7,92,64.7H77.6z M79.4,38.4h11.7c2.3,0,4.2-0.6,5.8-2c1.6-1.2,2.2-3.1,2.2-5.4s-0.8-4-2.2-5.3
			c-1.6-1.2-3.4-1.7-5.8-1.7H79.4V38.4z M79.4,60.3h12.8c1.9,0,3.4-0.3,4.8-1.1s2.5-1.7,3.3-3.1c0.8-1.4,1.2-3,1.2-4.8
			c0-1.7-0.5-3.3-1.2-4.5c-0.8-1.2-1.9-2.3-3.3-3c-1.4-0.8-3.1-1.1-4.8-1.1H79.4V60.3z"/>
		<path class="st0" d="M128.8,65c-3.1,0-5.9-0.6-8.2-2c-2.3-1.4-4.4-3.3-5.6-5.6c-1.4-2.5-2-5.1-2-8.2c0-3.1,0.6-5.9,1.9-8.2
			c1.2-2.3,3.1-4.4,5.3-5.6c2.3-1.4,4.8-2,7.8-2c3,0,5.4,0.6,7.6,2c2.2,1.4,3.9,3.1,5,5.4c1.1,2.3,1.7,5,1.7,7.9
			c0,0.6-0.2,1.1-0.6,1.4c-0.3,0.3-0.9,0.6-1.6,0.6h-24.3v-3.7h24.9l-2.5,1.7c0-2.2-0.3-4.2-1.2-5.9c-0.8-1.7-2-3.1-3.6-4.2
			c-1.6-0.9-3.4-1.6-5.6-1.6s-4,0.5-5.8,1.6s-3,2.5-3.9,4.4s-1.4,3.9-1.4,6.2c0,2.3,0.5,4.4,1.6,6.2c1.1,1.9,2.3,3.3,4.2,4.2
			c1.9,0.9,3.7,1.6,6.1,1.6c1.4,0,2.8-0.3,4.2-0.8c1.4-0.5,2.5-1.1,3.4-1.9c0.5-0.3,0.9-0.5,1.4-0.6c0.5,0,0.9,0.2,1.4,0.5
			c0.5,0.5,0.8,0.9,0.8,1.6c0,0.5-0.2,0.9-0.6,1.4c-1.2,1.1-3,2-4.8,2.6C132.3,64.5,130.5,65,128.8,65z"/>
		<path class="st0" d="M151.9,64.7c-0.6,0-1.2-0.2-1.6-0.6c-0.3-0.3-0.6-0.9-0.6-1.6V35.3c0-0.6,0.2-1.2,0.6-1.6
			c0.3-0.3,0.9-0.6,1.6-0.6c0.6,0,1.2,0.2,1.6,0.6c0.3,0.3,0.6,0.9,0.6,1.6v27.1c0,0.6-0.2,1.2-0.6,1.6
			C153.2,64.5,152.6,64.7,151.9,64.7z M151.6,45.2c0.2-2.3,0.8-4.5,1.9-6.4c1.1-1.9,2.6-3.4,4.4-4.4c1.9-1.1,3.9-1.6,6.1-1.6
			c1.7,0,3.1,0.3,4,0.8s1.4,1.2,1.1,2.2c-0.2,0.6-0.5,0.9-0.8,1.1c-0.3,0.2-0.8,0.3-1.4,0.2c-0.5,0-1.1,0-1.7-0.2
			c-2.2-0.2-4,0-5.8,0.6s-3,1.6-4,3c-0.9,1.2-1.4,2.8-1.4,4.7C154,45.2,151.6,45.2,151.6,45.2z"/>
		<path class="st0" d="M190,65c-3,0-5.6-0.6-7.9-2.2c-2.3-1.4-4.2-3.3-5.6-5.8c-1.4-2.5-2-5.1-2-8.2c0-3.1,0.8-5.8,2.2-8.2
			c1.4-2.5,3.3-4.4,5.8-5.8c2.5-1.4,5.1-2.2,8.2-2.2c3,0,5.8,0.8,8.1,2.2c2.3,1.4,4.4,3.3,5.8,5.8c1.4,2.5,2.2,5.1,2.2,8.2l-1.7,1.4
			c0,2.8-0.6,5.3-1.9,7.5s-3,3.9-5.3,5.3C195.3,64.3,192.8,65,190,65z M190.5,60.9c2.2,0,4.2-0.5,5.9-1.6c1.7-1.1,3.1-2.5,4.2-4.4
			c1.1-1.9,1.6-3.9,1.6-6.1c0-2.3-0.5-4.4-1.6-6.2c-1.1-1.9-2.3-3.3-4.2-4.4c-1.7-1.1-3.7-1.6-5.9-1.6s-4.2,0.5-5.9,1.6
			c-1.7,1.1-3.1,2.5-4.2,4.4c-1.1,1.9-1.6,3.9-1.6,6.2c0,2.3,0.5,4.4,1.6,6.1c1.1,1.9,2.5,3.3,4.2,4.4
			C186.3,60.3,188.3,60.9,190.5,60.9z M204.2,64.7c-0.6,0-1.2-0.2-1.6-0.6c-0.5-0.5-0.6-0.9-0.6-1.6v-9.8l1.1-4.5l3.4,0.9v13.5
			c0,0.6-0.2,1.2-0.6,1.6C205.4,64.5,204.8,64.7,204.2,64.7z"/>
		<path class="st0" d="M217.3,64.7c-0.6,0-1.2-0.2-1.7-0.6c-0.5-0.5-0.6-0.9-0.6-1.6V35.4c0-0.6,0.2-1.2,0.6-1.7
			c0.5-0.5,0.9-0.6,1.7-0.6c0.6,0,1.2,0.2,1.6,0.6c0.5,0.5,0.6,0.9,0.6,1.7v27.1c0,0.6-0.2,1.2-0.6,1.6
			C218.5,64.5,218.1,64.7,217.3,64.7z M242,64.7c-0.6,0-1.2-0.2-1.6-0.6c-0.5-0.5-0.6-0.9-0.6-1.6V47.5c0-2.3-0.5-4.4-1.4-5.9
			c-0.9-1.6-2.2-2.6-3.7-3.4c-1.6-0.8-3.3-1.1-5.3-1.1c-1.9,0-3.6,0.3-5.1,1.1s-2.6,1.7-3.6,3c-0.9,1.2-1.4,2.6-1.4,4.4h-3.1
			c0-2.5,0.8-4.5,2-6.5c1.2-1.9,2.8-3.4,4.8-4.5c2-1.1,4.4-1.7,6.8-1.7c2.8,0,5.1,0.6,7.3,1.7c2.2,1.1,3.9,2.8,5.1,5
			s1.9,4.8,1.9,7.9v14.9c0,0.6-0.2,1.1-0.6,1.6C243.3,64.3,242.6,64.7,242,64.7z"/>
		<path class="st0" d="M268,65c-3,0-5.6-0.6-7.9-2.2c-2.3-1.4-4.2-3.3-5.6-5.8c-1.4-2.5-2-5.1-2-8.2c0-3.1,0.8-5.8,2.2-8.2
			c1.4-2.5,3.3-4.4,5.8-5.8c2.5-1.4,5.1-2.2,8.2-2.2c3,0,5.8,0.8,8.1,2.2c2.3,1.4,4.4,3.3,5.8,5.8c1.4,2.5,2.2,5.1,2.2,8.2l-1.7,1.4
			c0,2.8-0.6,5.3-1.9,7.5c-1.2,2.2-3,3.9-5.3,5.3C273.3,64.3,270.8,65,268,65z M268.5,60.9c2.2,0,4.2-0.5,5.9-1.6
			c1.7-1.1,3.1-2.5,4.2-4.4c1.1-1.9,1.6-3.9,1.6-6.1c0-2.3-0.5-4.4-1.6-6.2c-1.1-1.9-2.3-3.3-4.2-4.4c-1.7-1.1-3.7-1.6-5.9-1.6
			c-2.2,0-4.2,0.5-5.9,1.6c-1.7,1.1-3.1,2.5-4.2,4.4c-1.1,1.9-1.6,3.9-1.6,6.2c0,2.3,0.5,4.4,1.6,6.1c1.1,1.9,2.5,3.3,4.2,4.4
			C264.3,60.3,266.1,60.9,268.5,60.9z M282.1,64.7c-0.6,0-1.2-0.2-1.6-0.6c-0.5-0.5-0.6-0.9-0.6-1.6v-9.8l1.1-4.5l3.4,0.9v13.5
			c0,0.6-0.2,1.2-0.6,1.6C283.4,64.5,282.8,64.7,282.1,64.7z"/>
		<path class="st0" d="M296.2,64.7c-0.8,0-1.4-0.2-1.9-0.6c-0.5-0.5-0.8-0.9-0.8-1.7V21.9c0-0.6,0.2-1.2,0.6-1.6
			c0.5-0.5,0.9-0.6,1.6-0.6h14c2.3,0,4.4,0.5,6.2,1.4c1.9,0.9,3.3,2.3,4.4,4s1.7,3.6,1.7,5.9c0,2-0.6,3.9-1.7,5.6
			c-1.1,1.6-2.6,2.8-4.4,3.7c2.6,0.6,4.7,2,6.2,3.9c1.6,1.9,2.3,4.4,2.3,7.2c0,2.6-0.6,5-1.7,6.8c-1.2,2-2.8,3.6-5,4.7
			c-2.2,1.1-4.5,1.7-7.2,1.7H296.2z M298,38.4h11.7c2.3,0,4.2-0.6,5.8-2c1.6-1.2,2.2-3.1,2.2-5.4s-0.8-4-2.2-5.3
			c-1.6-1.2-3.4-1.7-5.8-1.7H298V38.4z M298,60.3h12.8c1.9,0,3.4-0.3,4.8-1.1c1.4-0.8,2.5-1.7,3.3-3.1c0.8-1.4,1.2-3,1.2-4.8
			c0-1.7-0.5-3.3-1.2-4.5c-0.8-1.2-1.9-2.3-3.3-3c-1.4-0.8-3.1-1.1-4.8-1.1H298V60.3z"/>
		<path class="st0" d="M344.8,63.7c-0.6,0.3-1.1,0.3-1.6,0.2s-0.9-0.6-1.2-1.1l-12.9-26.6c-0.3-0.6-0.3-1.1-0.2-1.6
			c0.2-0.5,0.6-0.9,1.1-1.1c0.6-0.3,1.1-0.3,1.6-0.2c0.5,0.2,0.9,0.6,1.1,1.1l12.6,26.6c0.3,0.6,0.5,1.1,0.3,1.6
			C345.8,62.9,345.5,63.4,344.8,63.7z M338.5,78.3c-0.3,0-0.6,0-1.1-0.2c-1.2-0.6-1.7-1.6-1.1-2.8L355,34.5c0.6-1.2,1.6-1.6,2.8-1.1
			c1.2,0.5,1.7,1.4,1.1,2.6l-18.7,40.9C339.7,77.9,339.2,78.3,338.5,78.3z"/>
		<path class="st0" d="M362.6,38.2c-0.6,0-1.1-0.2-1.4-0.6c-0.3-0.3-0.6-0.8-0.6-1.4s0.2-1.1,0.6-1.4c0.3-0.3,0.9-0.6,1.4-0.6h14.6
			c0.6,0,1.1,0.2,1.4,0.6c0.3,0.3,0.6,0.8,0.6,1.4c0,0.5-0.2,0.9-0.6,1.4c-0.3,0.3-0.9,0.6-1.4,0.6H362.6z M376.9,64.7
			c-2,0-3.9-0.5-5.4-1.4c-1.6-0.9-2.8-2.3-3.7-3.9c-0.9-1.7-1.4-3.6-1.4-5.8V25.3c0-0.6,0.2-1.2,0.6-1.6c0.5-0.5,0.9-0.6,1.6-0.6
			s1.2,0.2,1.6,0.6c0.5,0.5,0.6,0.9,0.6,1.6v28.2c0,2,0.6,3.6,1.7,4.8c1.1,1.2,2.6,1.9,4.4,1.9h1.6c0.6,0,1.1,0.2,1.6,0.6
			c0.3,0.5,0.6,0.9,0.6,1.6s-0.2,1.2-0.6,1.6c-0.5,0.5-1.1,0.6-1.7,0.6h-1.2V64.7z"/>
		<path class="st0" d="M401.9,65c-3.1,0-5.9-0.6-8.2-2s-4.4-3.3-5.6-5.6c-1.4-2.5-2-5.1-2-8.2c0-3.1,0.6-5.9,1.9-8.2
			c1.2-2.3,3.1-4.4,5.3-5.6c2.3-1.4,4.8-2,7.8-2c3,0,5.4,0.6,7.6,2c2.2,1.4,3.9,3.1,5,5.4c1.1,2.3,1.7,5,1.7,7.9
			c0,0.6-0.2,1.1-0.6,1.4c-0.3,0.3-0.9,0.6-1.6,0.6h-24.4v-3.7h24.9l-2.5,1.7c0-2.2-0.3-4.2-1.2-5.9c-0.8-1.7-2-3.1-3.6-4.2
			c-1.6-0.9-3.4-1.6-5.6-1.6c-2.2,0-4,0.5-5.8,1.6c-1.7,1.1-3,2.5-3.9,4.4s-1.4,3.9-1.4,6.2c0,2.3,0.5,4.4,1.6,6.2
			c1.1,1.9,2.3,3.3,4.2,4.2c1.9,0.9,3.7,1.6,6.1,1.6c1.4,0,2.8-0.3,4.2-0.8c1.4-0.5,2.5-1.1,3.4-1.9c0.5-0.3,0.9-0.5,1.4-0.6
			c0.5,0,0.9,0.2,1.4,0.5c0.5,0.5,0.8,0.9,0.8,1.6c0,0.5-0.2,0.9-0.6,1.4c-1.2,1.1-3,2-4.8,2.6C405.7,64.5,403.8,65,401.9,65z"/>
	</g>
</g>
</svg>
