<?xml version="1.0" encoding="utf-8"?>
<svg version="1.1" id="Layer_1" xmlns="http://www.w3.org/2000/svg" xmlns:xlink="http://www.w3.org/1999/xlink" x="0px" y="0px"
	 viewBox="0 0 353.5 84.2" style="enable-background:new 0 0 353.5 84.2;" xml:space="preserve">
<style type="text/css">
	.st0{fill:#008080;}
</style>
<g>
	<g>
		<g>
			<path class="st0" d="M3.2,28.2c0.9,0.4,1.3,0.6,2,0.8c-0.1-1-0.1-2.1,0-3.2c0.1-1.1,0.3-2.4,0.7-3.6c0.7-2.4,2-4.7,3.9-6.6
				c-0.1,2-0.1,3.8,0.2,5.6c0.1-3.1,1.2-6.2,3.1-8.9c1.9-2.7,4.5-4.9,7.6-6.5c2.6-1.3,5.4-2.2,8.4-2.7c0.7-0.1,1.5-0.2,2.2-0.3
				c0.6-0.1,1.1-0.1,1.7-0.2c1.1-0.1,2.2-0.1,3.4-0.2c-2.6,1.9-4.1,3.6-6.6,5.7c2.6-1.4,4-2.8,6.2-3.8c2.1-1,4.6-1.7,7.6-1.2
				c4.5,0.8,9,2.6,13.2,5.5c1,0.7,1.9,1.3,2.8,2.1l-0.2,0.8c-1.2-0.4-2.3-0.7-3.5-1c-2.8-0.6-5.4-0.7-7.9-0.5
				c2.4,0.3,4.4,1.1,6.2,1.4c0.4,0.1,0.7,0.2,1.1,0.3c4.3,1.3,7.5,4.8,8.9,8.7c1.2,3.4,1.8,7.1,1.1,10.5c-0.3,1.6-0.9,3.3-1.8,4.6
				c-0.9,1.3-2,2.2-3.2,2.9C58.7,39.2,57,39.9,55,40c1.1-1.7,1.6-3.3,1.7-4.8L56.2,35c0,1.7-0.9,3.6-2.3,4.2
				c-0.7,0.3-1.5,0.3-2.3-0.1c-0.8-0.4-1.5-1.3-2.1-2.6c0.3,0.3,0.8,0.5,1.2,0.5l-0.1-0.1c-0.8-0.4-1.4-1.2-1.7-1.7l-0.1-0.2l0-0.1
				l0-0.1l0,0l0,0.1l0,0.1c0,0,0,0,0,0l0,0c0,0,0-0.1,0-0.1c0-0.1-0.1-0.3-0.3-0.6c-0.2-0.4-0.7-0.9-0.9-1c-0.2-0.2-0.1-0.1,0.3,0.1
				c0.2,0.1,0.5,0.1,0.8,0.2c0.1,0,0.3,0,0.4,0c0.1,0,0.1,0,0.2,0l0.1,0l0,0l-1.6,0.1l0,0l-0.1,0c-0.1,0-0.1,0-0.2,0l-0.1,0
				c0,0-0.1,0,0.1,0c0.2,0,0.4-0.1,0.7-0.1l-0.2,0l-0.7,0.2l-0.1,0l0,0l0,0l0,0c0.1,0,0.1,0,0.2,0l0.2,0c0.5,0,1.1,0,1.7-0.1
				l-1.6,0.1l-0.1,0l-0.3,0l-0.3,0.1c-0.1,0-0.2,0.1-0.4,0.1c-0.1,0-0.3,0.1-0.4,0.1C46.1,34,46,34,45.8,34.1
				c-0.1,0.1-0.3,0.1-0.5,0.2l-0.2,0.1c0,0-0.1,0.1-0.1,0l0.1-0.1c-0.3,0.2-0.2,0.1-0.1,0.1c0,0,0.1,0,0.1-0.1
				c-0.3,0.2-0.6,0.4-0.9,0.5l-0.4,0.3c-0.1,0.1,0,0,0,0c0,0,0,0,0,0c0.1-0.1,0.1-0.2,0.2-0.5c0.2-0.5,0.4-1.4,0.7-2.6
				c0.3-1.7,0.5-4.2,1-7.3l-0.4,0.3c-0.3,2.5-0.8,4.9-1.6,7.5c-0.8-1.1-1.9-3.1-2.8-5.3c-0.7,0.2-1.2,0.6-1.5,0.4
				c-0.8-0.5-1.6-1-2.5-1.5c-0.9-0.5-1.9-1-2.7-1.4c0.3,0.7,0.7,1.4,0.9,2.1c-0.9,0.1-1.9,0.2-3.1,0.4c-1.1,0.1-2.3,0.3-3.8,0.4
				c-1.4,0.1-3.2,0.2-5.2,0.1c1,0.4,2,0.8,3.1,1.3c-0.6,0.7-1.3,1.4-1.9,2.2c-0.6,0.7-1.3,1.5-2.1,2.5c-1.5,1.7-3.2,3.5-5.5,5.2
				c0.7,0.1,1.1,0.2,1.6,0.3c-0.8,2.6-1.9,5-4.6,7.2c-0.5-2.7-0.7-5.4-0.7-8.2c0.1-2.8,0.5-5.7,1.4-8.5c0.4-1.4,1-2.9,1.8-4.3
				c0.7-1.4,1.6-2.7,2.6-3.9c2-2.4,4.6-4.3,7.4-5.4c2.3-0.9,4.8-1.3,7.2-1.4c2.2,0,4.3,0.1,6.4,0.5c4.1,0.8,8.2,2.6,11,5.4
				c0.5,0.5,0.9,0.9,1.3,1.4c-0.4-0.5-0.8-1-1.2-1.5c-2.8-3-6.9-5.1-11.1-6c-2.1-0.5-4.3-0.8-6.5-0.8c-2.5,0-5.1,0.4-7.6,1.3
				c-3.2,1.2-6.1,3.3-8.4,6c-1.1,1.3-2.1,2.9-2.9,4.5c-0.4,0.8-0.8,1.6-1.1,2.4c-0.3,0.8-0.6,1.5-0.8,2.3c-0.9,3.1-1.2,6.2-1.2,9.2
				c0,2.9,0.4,5.8,1.1,8.7c0.6,2.8,1.6,5.6,2.9,8.2c1.2,2.6,2.7,5,4.5,7.3c3.4,4.5,7.9,8.1,12.7,10.5l-0.4,0.7c-1-0.3-2.1-0.4-3-1
				c-3.3-2.2-6.4-4.9-9.2-8.1C16.9,62.6,14.6,59,13,55c-1.9-4.7-4.4-8.1-7.1-12.1C3.5,39.4,2.5,34.2,3.2,28.2z"/>
		</g>
	</g>
</g>
<g>
	<path class="st0" d="M102.8,49.4c0,3.9-1,6.8-2.9,8.9c-1.9,2.1-4.6,3.1-8,3.1h-5.1c-4.2,0-7.2-0.8-9-2.4c-1.8-1.6-2.7-4.4-2.7-8.3
		V19.8h16.1c3.6,0,6.4,1,8.2,3c1.8,2,2.8,4.8,2.8,8.4c0,2.1-0.5,3.9-1.5,5.4c-1,1.5-2.1,2.5-3.2,3.2C101,41.5,102.8,44.8,102.8,49.4
		z M90.7,36c2.8,0,4.1-1.5,4.1-4.5c0-3-1.4-4.5-4.1-4.5h-8.1v9H90.7z M95.3,49c0-1.9-0.3-3.3-0.9-4.2c-0.6-1-1.7-1.4-3.3-1.4h-8.6
		v6.5c0,1.6,0.4,2.7,1.1,3.3c0.7,0.6,1.9,0.9,3.6,0.9h3.9C93.9,54.2,95.3,52.5,95.3,49z"/>
	<path class="st0" d="M132.8,46.5H115c0,3,0.4,5.3,1.3,6.7c0.9,1.4,2.6,2.1,5.3,2.1c1.7,0,3-0.6,3.8-1.8c0.8-1.2,1.2-2.3,1.2-3.4
		h6.3c0,4.2-1,7.2-3.1,9.2c-2.1,1.9-4.8,2.9-8.2,2.9c-3.4,0-6-0.5-7.9-1.6c-3.8-2.1-5.7-7.8-5.7-17.1c0-5.5,1.1-9.5,3.3-12.1
		c2.2-2.6,5.5-3.8,10-3.8c7.8,0,11.6,4.7,11.6,14.1C132.9,42.7,132.9,44.3,132.8,46.5z M115.1,41.3h11.5c0-2.6-0.4-4.4-1.3-5.6
		c-0.9-1.2-2.3-1.8-4.1-1.8c-1.8,0-3.3,0.6-4.4,1.8C115.7,36.9,115.1,38.8,115.1,41.3z"/>
	<path class="st0" d="M155.5,28.2l-1.9,7.5c-0.5-0.2-1.1-0.4-1.8-0.4c-1.8,0-4,0.8-6.6,2.5v23.6h-7V28h5.2L145,31l7.4-3.3
		c0.4,0,0.8-0.1,1.4-0.1C154.5,27.6,155,27.8,155.5,28.2z"/>
	<path class="st0" d="M181.3,61.4h-4.7l-2.1-4l-7.5,4.4c-4.1,0-6.9-1.6-8.4-4.9c-0.7-1.6-1.2-3.3-1.5-5.2c-0.3-1.9-0.4-3.8-0.4-5.8
		c0-2,0-3.5,0.1-4.4c0-1,0.1-2.1,0.3-3.3c0.1-1.3,0.3-2.3,0.6-3.2c0.3-0.9,0.7-1.7,1.2-2.7c0.5-0.9,1.1-1.6,1.8-2.2
		c1.6-1.2,3.7-1.8,6.3-1.8h7.3l7-0.5V61.4z M174.3,50.8V35.1H169c-2,0-3.3,0.8-4.1,2.5c-0.8,1.6-1.2,4.1-1.2,7.3
		c0,3.3,0.4,5.5,1.1,6.9c0.7,1.3,2.1,2,4.2,2L174.3,50.8z"/>
	<path class="st0" d="M212.6,61.4h-7V40.1c0-1.9-0.4-3.2-1.1-3.9c-0.7-0.7-1.7-1.1-3-1.1l-6.3,2.9v23.4h-7V28h5.2l1.6,4l8.6-4.3
		c2.4,0,4.5,1,6.2,2.9s2.7,4.7,2.7,8.4V61.4z"/>
	<path class="st0" d="M240.6,61.4H236l-2.1-4l-7.5,4.4c-4.1,0-6.9-1.6-8.4-4.9c-0.7-1.6-1.2-3.3-1.5-5.2c-0.3-1.9-0.4-3.8-0.4-5.8
		c0-2,0-3.5,0.1-4.4c0-1,0.1-2.1,0.3-3.3c0.1-1.3,0.3-2.3,0.6-3.2c0.3-0.9,0.7-1.7,1.2-2.7c0.5-0.9,1.1-1.6,1.8-2.2
		c1.6-1.2,3.7-1.8,6.3-1.8h7.3l7-0.5V61.4z M233.7,50.8V35.1h-5.3c-2,0-3.3,0.8-4.1,2.5c-0.8,1.6-1.2,4.1-1.2,7.3
		c0,3.3,0.4,5.5,1.1,6.9c0.7,1.3,2.1,2,4.2,2L233.7,50.8z"/>
	<path class="st0" d="M276.4,49.4c0,3.9-1,6.8-2.9,8.9c-1.9,2.1-4.6,3.1-8,3.1h-5.1c-4.2,0-7.2-0.8-9-2.4c-1.8-1.6-2.7-4.4-2.7-8.3
		V19.8h16.1c3.6,0,6.4,1,8.2,3c1.8,2,2.8,4.8,2.8,8.4c0,2.1-0.5,3.9-1.5,5.4c-1,1.5-2.1,2.5-3.2,3.2
		C274.7,41.5,276.4,44.8,276.4,49.4z M264.3,36c2.8,0,4.1-1.5,4.1-4.5c0-3-1.4-4.5-4.1-4.5h-8.1v9H264.3z M269,49
		c0-1.9-0.3-3.3-0.9-4.2c-0.6-1-1.7-1.4-3.3-1.4h-8.6v6.5c0,1.6,0.4,2.7,1.1,3.3c0.7,0.6,1.9,0.9,3.6,0.9h3.9
		C267.6,54.2,269,52.5,269,49z"/>
	<path class="st0" d="M305.9,28l-11.6,37.1c-0.5,1.7-1.2,3-2.1,3.9c-1.4,1.6-3.4,2.3-6,2.3h-3.3v-6.8h2.1c1,0,1.7-0.2,2.2-0.6
		c0.5-0.4,0.9-1.1,1.3-2.2l0.5-1.6L279.8,28h7.3l5.5,23.2l5.9-23.2H305.9z"/>
	<path class="st0" d="M323.1,61.4h-4.3c-2.6,0-4.7-0.9-6-2.6c-1.4-1.7-2.1-3.8-2.1-6.1V35.2h-3v-5.8h3v-6.5h7v6.5h4.9v5.8h-4.9v17.1
		c0,1.8,0.8,2.7,2.4,2.7h3.1V61.4z"/>
	<path class="st0" d="M351.8,46.5H334c0,3,0.4,5.3,1.3,6.7c0.9,1.4,2.6,2.1,5.3,2.1c1.7,0,3-0.6,3.8-1.8c0.8-1.2,1.2-2.3,1.2-3.4
		h6.3c0,4.2-1,7.2-3.1,9.2c-2.1,1.9-4.8,2.9-8.2,2.9s-6-0.5-7.9-1.6c-3.8-2.1-5.7-7.8-5.7-17.1c0-5.5,1.1-9.5,3.3-12.1
		c2.2-2.6,5.5-3.8,10-3.8c7.8,0,11.6,4.7,11.6,14.1C351.9,42.7,351.9,44.3,351.8,46.5z M334.1,41.3h11.5c0-2.6-0.4-4.4-1.3-5.6
		c-0.9-1.2-2.3-1.8-4.1-1.8c-1.8,0-3.3,0.6-4.4,1.8C334.7,36.9,334.1,38.8,334.1,41.3z"/>
</g>
</svg>
